HIERARCHY
ROOT mixamorig1:Hips
{
	OFFSET -0.000023 99.754364 3.007850
	CHANNELS 6 Xposition Yposition Zposition Xrotation Yrotation Zrotation
	JOINT mixamorig1:Spine
	{
		OFFSET 0.000000 9.717224 -1.180211
		CHANNELS 3 Xrotation Yrotation Zrotation
		JOINT mixamorig1:Spine1
		{
			OFFSET 0.000000 11.336823 -1.376936
			CHANNELS 3 Xrotation Yrotation Zrotation
			JOINT mixamorig1:Spine2
			{
				OFFSET 0.000000 12.956345 -1.573657
				CHANNELS 3 Xrotation Yrotation Zrotation
				JOINT mixamorig1:Neck
				{
					OFFSET 0.000000 14.575974 -1.770441
					CHANNELS 3 Xrotation Yrotation Zrotation
					JOINT mixamorig1:Head
					{
						OFFSET 0.000000 6.720200 1.972157
						CHANNELS 3 Xrotation Yrotation Zrotation
						JOINT mixamorig1:HeadTop_End
						{
							OFFSET 0.000000 20.999847 6.162758
							CHANNELS 3 Xrotation Yrotation Zrotation
							End Site
							{
								OFFSET 0.000000 21.885452 -0.000004
							}
						}
					}
				}
				JOINT mixamorig1:LeftShoulder
				{
					OFFSET 6.140116 12.877853 -1.799548
					CHANNELS 3 Xrotation Yrotation Zrotation
					JOINT mixamorig1:LeftArm
					{
						OFFSET 12.545031 -3.431427 -0.058010
						CHANNELS 3 Xrotation Yrotation Zrotation
						JOINT mixamorig1:LeftForeArm
						{
							OFFSET 25.447281 -1.876373 -1.505625
							CHANNELS 3 Xrotation Yrotation Zrotation
							JOINT mixamorig1:LeftHand
							{
								OFFSET 23.367504 0.877640 0.971305
								CHANNELS 3 Xrotation Yrotation Zrotation
								JOINT mixamorig1:LeftHandThumb1
								{
									OFFSET 3.575478 -1.761887 3.039434
									CHANNELS 3 Xrotation Yrotation Zrotation
									JOINT mixamorig1:LeftHandThumb2
									{
										OFFSET 2.860405 -1.409454 2.431552
										CHANNELS 3 Xrotation Yrotation Zrotation
										JOINT mixamorig1:LeftHandThumb3
										{
											OFFSET 2.578941 -1.801514 1.750709
											CHANNELS 3 Xrotation Yrotation Zrotation
											JOINT mixamorig1:LeftHandThumb4
											{
												OFFSET 2.408989 -1.461151 1.064221
												CHANNELS 3 Xrotation Yrotation Zrotation
												End Site
												{
													OFFSET 2.176476 -1.503357 1.440013
												}
											}
										}
									}
								}
								JOINT mixamorig1:LeftHandIndex1
								{
									OFFSET 11.357018 -1.306473 4.439679
									CHANNELS 3 Xrotation Yrotation Zrotation
									JOINT mixamorig1:LeftHandIndex2
									{
										OFFSET 3.215240 -0.390930 0.624045
										CHANNELS 3 Xrotation Yrotation Zrotation
										JOINT mixamorig1:LeftHandIndex3
										{
											OFFSET 2.938980 -0.735489 0.560646
											CHANNELS 3 Xrotation Yrotation Zrotation
											JOINT mixamorig1:LeftHandIndex4
											{
												OFFSET 2.552437 -0.779205 0.483288
												CHANNELS 3 Xrotation Yrotation Zrotation
												End Site
												{
													OFFSET 2.555870 -0.777603 0.467434
												}
											}
										}
									}
								}
								JOINT mixamorig1:LeftHandMiddle1
								{
									OFFSET 12.195602 -0.657242 2.108765
									CHANNELS 3 Xrotation Yrotation Zrotation
									JOINT mixamorig1:LeftHandMiddle2
									{
										OFFSET 3.379944 -0.547394 0.236206
										CHANNELS 3 Xrotation Yrotation Zrotation
										JOINT mixamorig1:LeftHandMiddle3
										{
											OFFSET 3.043900 -0.829651 0.195068
											CHANNELS 3 Xrotation Yrotation Zrotation
											JOINT mixamorig1:LeftHandMiddle4
											{
												OFFSET 2.806625 -0.600723 0.188473
												CHANNELS 3 Xrotation Yrotation Zrotation
												End Site
												{
													OFFSET 2.806618 -0.600739 0.188510
												}
											}
										}
									}
								}
								JOINT mixamorig1:LeftHandRing1
								{
									OFFSET 12.563576 -0.458878 -0.154891
									CHANNELS 3 Xrotation Yrotation Zrotation
									JOINT mixamorig1:LeftHandRing2
									{
										OFFSET 2.596565 -0.829819 0.032336
										CHANNELS 3 Xrotation Yrotation Zrotation
										JOINT mixamorig1:LeftHandRing3
										{
											OFFSET 2.548286 -0.608398 0.044838
											CHANNELS 3 Xrotation Yrotation Zrotation
											JOINT mixamorig1:LeftHandRing4
											{
												OFFSET 2.167870 -0.507812 0.038965
												CHANNELS 3 Xrotation Yrotation Zrotation
												End Site
												{
													OFFSET 2.167732 -0.508163 0.042114
												}
											}
										}
									}
								}
								JOINT mixamorig1:LeftHandPinky1
								{
									OFFSET 11.341652 -0.310532 -2.253323
									CHANNELS 3 Xrotation Yrotation Zrotation
									JOINT mixamorig1:LeftHandPinky2
									{
										OFFSET 2.648827 -0.669128 -0.120024
										CHANNELS 3 Xrotation Yrotation Zrotation
										JOINT mixamorig1:LeftHandPinky3
										{
											OFFSET 2.075249 -0.703857 -0.105192
											CHANNELS 3 Xrotation Yrotation Zrotation
											JOINT mixamorig1:LeftHandPinky4
											{
												OFFSET 1.850784 -0.684036 -0.097376
												CHANNELS 3 Xrotation Yrotation Zrotation
												End Site
												{
													OFFSET 1.850731 -0.683411 -0.102854
												}
											}
										}
									}
								}
							}
						}
					}
				}
				JOINT mixamorig1:RightShoulder
				{
					OFFSET -6.140133 12.877823 -1.741391
					CHANNELS 3 Xrotation Yrotation Zrotation
					JOINT mixamorig1:RightArm
					{
						OFFSET -12.545002 -3.431366 0.058123
						CHANNELS 3 Xrotation Yrotation Zrotation
						JOINT mixamorig1:RightForeArm
						{
							OFFSET -25.447330 -1.876465 -1.671036
							CHANNELS 3 Xrotation Yrotation Zrotation
							JOINT mixamorig1:RightHand
							{
								OFFSET -23.367435 0.877640 0.912149
								CHANNELS 3 Xrotation Yrotation Zrotation
								JOINT mixamorig1:RightHandThumb1
								{
									OFFSET -3.655281 -1.787811 3.110017
									CHANNELS 3 Xrotation Yrotation Zrotation
									JOINT mixamorig1:RightHandThumb2
									{
										OFFSET -2.924309 -1.430252 2.488113
										CHANNELS 3 Xrotation Yrotation Zrotation
										JOINT mixamorig1:RightHandThumb3
										{
											OFFSET -2.528549 -1.776962 1.706924
											CHANNELS 3 Xrotation Yrotation Zrotation
											JOINT mixamorig1:RightHandThumb4
											{
												OFFSET -2.443375 -1.162323 1.073468
												CHANNELS 3 Xrotation Yrotation Zrotation
												End Site
												{
													OFFSET -2.204521 -1.202744 1.472025
												}
											}
										}
									}
								}
								JOINT mixamorig1:RightHandIndex1
								{
									OFFSET -11.888382 -1.247833 4.755188
									CHANNELS 3 Xrotation Yrotation Zrotation
									JOINT mixamorig1:RightHandIndex2
									{
										OFFSET -3.042244 -0.516434 0.442817
										CHANNELS 3 Xrotation Yrotation Zrotation
										JOINT mixamorig1:RightHandIndex3
										{
											OFFSET -2.738869 -0.708374 0.392164
											CHANNELS 3 Xrotation Yrotation Zrotation
											JOINT mixamorig1:RightHandIndex4
											{
												OFFSET -2.432571 -0.620773 0.348507
												CHANNELS 3 Xrotation Yrotation Zrotation
												End Site
												{
													OFFSET -2.433441 -0.620270 0.343348
												}
											}
										}
									}
								}
								JOINT mixamorig1:RightHandMiddle1
								{
									OFFSET -12.008347 -0.748550 2.098396
									CHANNELS 3 Xrotation Yrotation Zrotation
									JOINT mixamorig1:RightHandMiddle2
									{
										OFFSET -3.442291 -0.415817 0.287318
										CHANNELS 3 Xrotation Yrotation Zrotation
										JOINT mixamorig1:RightHandMiddle3
										{
											OFFSET -3.106178 -0.837677 0.240102
											CHANNELS 3 Xrotation Yrotation Zrotation
											JOINT mixamorig1:RightHandMiddle4
											{
												OFFSET -2.855728 -0.604996 0.227592
												CHANNELS 3 Xrotation Yrotation Zrotation
												End Site
												{
													OFFSET -2.855972 -0.604736 0.225131
												}
											}
										}
									}
								}
								JOINT mixamorig1:RightHandRing1
								{
									OFFSET -12.328026 -0.608994 -0.015787
									CHANNELS 3 Xrotation Yrotation Zrotation
									JOINT mixamorig1:RightHandRing2
									{
										OFFSET -2.763496 -0.569153 -0.029507
										CHANNELS 3 Xrotation Yrotation Zrotation
										JOINT mixamorig1:RightHandRing3
										{
											OFFSET -2.573975 -0.772354 -0.042469
											CHANNELS 3 Xrotation Yrotation Zrotation
											JOINT mixamorig1:RightHandRing4
											{
												OFFSET -2.323860 -0.456833 -0.023427
												CHANNELS 3 Xrotation Yrotation Zrotation
												End Site
												{
													OFFSET -2.323814 -0.457275 -0.019363
												}
											}
										}
									}
								}
								JOINT mixamorig1:RightHandPinky1
								{
									OFFSET -11.463135 -0.329407 -2.202621
									CHANNELS 3 Xrotation Yrotation Zrotation
									JOINT mixamorig1:RightHandPinky2
									{
										OFFSET -2.569016 -0.599854 -0.108848
										CHANNELS 3 Xrotation Yrotation Zrotation
										JOINT mixamorig1:RightHandPinky3
										{
											OFFSET -2.016190 -0.737000 -0.102787
											CHANNELS 3 Xrotation Yrotation Zrotation
											JOINT mixamorig1:RightHandPinky4
											{
												OFFSET -1.796242 -0.576553 -0.085258
												CHANNELS 3 Xrotation Yrotation Zrotation
												End Site
												{
													OFFSET -1.796211 -0.576279 -0.087722
												}
											}
										}
									}
								}
							}
						}
					}
				}
			}
		}
	}
	JOINT mixamorig1:LeftUpLeg
	{
		OFFSET 8.078197 -5.402374 -0.535866
		CHANNELS 3 Xrotation Yrotation Zrotation
		JOINT mixamorig1:LeftLeg
		{
			OFFSET 3.743073 -42.540520 -2.695453
			CHANNELS 3 Xrotation Yrotation Zrotation
			JOINT mixamorig1:LeftFoot
			{
				OFFSET 3.359008 -41.940849 -2.882240
				CHANNELS 3 Xrotation Yrotation Zrotation
				JOINT mixamorig1:LeftToeBase
				{
					OFFSET 1.133368 -9.116436 13.321875
					CHANNELS 3 Xrotation Yrotation Zrotation
					JOINT mixamorig1:LeftToe_End
					{
						OFFSET 0.591574 -0.054443 6.177378
						CHANNELS 3 Xrotation Yrotation Zrotation
						End Site
						{
							OFFSET 0.591574 -0.054443 6.177376
						}
					}
				}
			}
		}
	}
	JOINT mixamorig1:RightUpLeg
	{
		OFFSET -8.078202 -5.402405 -0.751774
		CHANNELS 3 Xrotation Yrotation Zrotation
		JOINT mixamorig1:RightLeg
		{
			OFFSET -3.743069 -42.540482 -2.464511
			CHANNELS 3 Xrotation Yrotation Zrotation
			JOINT mixamorig1:RightFoot
			{
				OFFSET -3.359002 -41.940781 -2.968969
				CHANNELS 3 Xrotation Yrotation Zrotation
				JOINT mixamorig1:RightToeBase
				{
					OFFSET -1.133408 -9.116797 13.416489
					CHANNELS 3 Xrotation Yrotation Zrotation
					JOINT mixamorig1:RightToe_End
					{
						OFFSET -0.591589 -0.054615 6.151403
						CHANNELS 3 Xrotation Yrotation Zrotation
						End Site
						{
							OFFSET -0.591589 -0.054615 6.151402
						}
					}
				}
			}
		}
	}
}
MOTION
Frames: 4
Frame Time: 0.041667
-0.299663 92.681419 1.405902 18.786951 -13.502560 2.453220 6.278704 6.327015 -1.410557 4.023127 2.640844 -0.073797 4.023211 2.634774 0.054222 -6.245238 0.291347 0.360719 -6.246495 0.307287 0.323550 -0.000002 -0.000000 0.000000 0.305247 -13.066451 -12.865716 39.728608 -23.846940 -52.882470 -2.634970 -31.488726 -7.069097 -39.851852 5.786079 2.890936 6.903154 3.659693 -3.061796 -0.263788 17.487893 15.821353 -12.097677 5.042271 10.477866 -0.000012 -0.000004 0.000005 20.854345 5.445831 -79.391216 16.183689 6.791043 -51.052809 14.251361 5.805130 -44.303431 0.000006 0.000005 0.000004 14.579568 7.048916 -77.773595 11.707581 9.374017 -52.976634 10.420823 7.862392 -51.139143 -0.000010 -0.000006 -0.000008 11.545521 7.489804 -68.516223 12.354009 10.024633 -64.532980 8.101711 9.481868 -47.193025 0.000002 0.000001 0.000013 20.207943 16.918923 -89.556095 8.584451 12.228523 -55.762265 6.539251 10.254616 -46.526262 0.000006 -0.000004 0.000001 1.238949 23.426041 5.845986 -35.281390 10.173999 63.120695 -9.404134 65.604718 12.355549 -30.732460 14.320351 -5.839198 5.359664 2.729897 2.198583 -0.325158 -19.236646 -16.537152 -8.734042 -3.321993 -4.296766 -0.000002 -0.000010 0.000010 16.827790 -3.093758 76.083506 13.632795 -5.435082 53.763592 11.887819 -4.745322 47.981468 -0.000003 -0.000000 -0.000003 13.109739 -4.236144 80.093961 10.292387 -7.464266 51.026960 9.660595 -5.941600 51.286808 0.000000 -0.000002 0.000002 12.870893 -4.360862 78.884867 7.726314 -9.653251 55.360958 6.223066 -8.325419 52.858144 0.000001 0.000003 -0.000005 16.877836 -13.936286 82.096463 6.712117 -10.397911 53.585805 5.520355 -8.894610 50.629542 -0.000002 -0.000001 0.000003 -71.317284 6.817726 11.567584 124.666498 11.270392 -7.073979 36.209660 4.683609 8.140666 -1.976982 0.000006 -0.000004 -0.000003 0.000004 0.000005 -14.006223 -5.961996 7.860262 28.377530 3.641121 1.422164 -22.532562 10.038408 -10.216179 -14.117473 -0.000037 -0.000000 -0.000000 0.000005 -0.000003 
0.041069 91.753021 -0.080269 19.076160 -10.810608 8.112724 6.088094 9.528186 -6.801424 3.892392 3.796853 -1.285172 3.925103 3.803741 -1.036421 -3.939691 -0.886747 -1.685219 -3.933225 -0.963678 -1.689204 -0.000001 -0.000002 0.000000 1.398875 -14.276044 -3.703118 55.996049 -23.412818 -51.880717 -4.950052 -49.309041 -8.577171 -44.224857 13.599711 1.347295 6.903158 3.659711 -3.061777 -0.263811 17.487895 15.821358 -12.097681 5.042268 10.477857 -0.000005 0.000002 -0.000001 20.854337 5.445830 -79.391223 16.183667 6.791043 -51.052809 14.251378 5.805133 -44.303431 0.000011 -0.000005 0.000002 14.579592 7.048921 -77.773622 11.707602 9.374010 -52.976655 10.420829 7.862386 -51.139139 0.000004 0.000001 -0.000011 11.545526 7.489806 -68.516237 12.353971 10.024629 -64.532986 8.101724 9.481872 -47.193021 0.000003 -0.000011 -0.000002 20.207946 16.918956 -89.556081 8.584437 12.228510 -55.762262 6.539248 10.254608 -46.526275 0.000003 0.000008 0.000009 3.476861 22.875985 -6.476204 -47.750317 10.855804 69.047619 -25.534799 80.308551 27.908874 -40.426237 30.693098 -3.092906 5.359664 2.729910 2.198574 -0.325162 -19.236637 -16.537162 -8.734033 -3.321989 -4.296767 0.000003 -0.000009 -0.000003 16.827766 -3.093767 76.083506 13.632785 -5.435071 53.763592 11.887830 -4.745316 47.981474 -0.000005 0.000004 -0.000006 13.109728 -4.236153 80.093954 10.292395 -7.464264 51.026943 9.660589 -5.941599 51.286801 -0.000004 0.000006 -0.000001 12.870922 -4.360873 78.884867 7.726301 -9.653243 55.360971 6.223067 -8.325423 52.858144 -0.000005 -0.000008 0.000001 16.877853 -13.936296 82.096470 6.712109 -10.397913 53.585809 5.520361 -8.894606 50.629549 -0.000001 0.000005 0.000001 -83.321143 6.340389 2.776713 110.919663 14.038072 -5.945875 26.379070 4.335331 5.445392 2.771928 -0.000015 0.000007 0.000002 0.000004 0.000004 3.280944 -12.842428 -1.053072 8.692226 0.358672 1.108144 -11.246943 16.203676 -5.139620 -27.166616 -0.000060 -0.000012 0.000002 0.000004 0.000000 
-0.321348 90.400764 -1.822306 18.793660 -3.861553 14.885588 8.085353 11.156360 -14.678435 4.545397 4.298399 -2.267770 4.593642 4.379248 -1.915328 -0.974361 -2.475651 -2.402122 -0.953143 -2.585668 -2.334133 -0.000006 -0.000001 0.000003 2.735705 -19.624068 3.482378 62.075676 -16.395099 -49.562814 -8.070905 -62.278020 -11.167166 -51.694205 8.733234 2.668575 6.903168 3.659691 -3.061791 -0.263797 17.487893 15.821337 -12.097680 5.042270 10.477868 -0.000004 -0.000004 -0.000002 20.854331 5.445834 -79.391216 16.183689 6.791031 -51.052792 14.251367 5.805131 -44.303414 -0.000007 -0.000002 0.000001 14.579575 7.048921 -77.773595 11.707582 9.374017 -52.976658 10.420823 7.862381 -51.139136 0.000004 0.000004 -0.000006 11.545499 7.489804 -68.516230 12.353990 10.024623 -64.532986 8.101733 9.481873 -47.193028 -0.000001 0.000005 -0.000004 20.207922 16.918954 -89.556088 8.584444 12.228508 -55.762272 6.539255 10.254620 -46.526279 0.000000 0.000000 0.000000 0.789130 17.562057 -5.847885 -51.407917 16.042984 60.831044 20.667241 101.687344 -19.020730 -38.921491 41.545821 -4.465048 5.359664 2.729911 2.198593 -0.325142 -19.236623 -16.537143 -8.734041 -3.321996 -4.296765 -0.000005 0.000001 0.000006 16.827774 -3.093759 76.083499 13.632799 -5.435089 53.763581 11.887814 -4.745311 47.981457 -0.000009 -0.000002 -0.000004 13.109742 -4.236148 80.093954 10.292402 -7.464277 51.026953 9.660611 -5.941606 51.286815 0.000002 0.000003 -0.000000 12.870903 -4.360876 78.884860 7.726325 -9.653249 55.360978 6.223080 -8.325428 52.858130 -0.000013 -0.000002 -0.000001 16.877867 -13.936295 82.096476 6.712125 -10.397905 53.585815 5.520381 -8.894617 50.629556 0.000006 -0.000003 -0.000003 -87.987945 8.758434 -11.268309 86.883449 14.673376 -3.881042 16.857663 7.730589 3.853494 6.909411 -0.000012 0.000006 -0.000003 0.000003 0.000000 11.628108 -18.805828 -7.086956 1.243386 -0.159012 0.577631 17.304522 5.697763 -6.752913 -49.804623 -0.957339 2.586035 -0.000000 0.000009 -0.000000 
-0.970316 91.559998 -1.989166 19.539568 0.891227 12.410935 7.484589 11.330368 -13.856205 4.141076 4.169975 -2.351110 4.142845 4.284913 -2.096843 1.490412 -3.297063 -1.186103 1.505272 -3.346518 -1.097577 0.000002 0.000001 -0.000002 2.553841 -19.843907 2.561526 53.101159 -8.727106 -49.976634 -7.375180 -60.089593 -10.558783 -54.316536 3.941451 6.570992 6.903173 3.659703 -3.061779 -0.263795 17.487900 15.821349 -12.097675 5.042270 10.477873 -0.000011 0.000005 -0.000001 20.854333 5.445835 -79.391216 16.183688 6.791034 -51.052809 14.251365 5.805125 -44.303421 0.000003 -0.000003 0.000001 14.579570 7.048923 -77.773602 11.707580 9.374014 -52.976641 10.420829 7.862392 -51.139139 0.000002 -0.000000 -0.000004 11.545508 7.489814 -68.516223 12.354001 10.024624 -64.532986 8.101726 9.481868 -47.193025 0.000002 0.000000 0.000002 20.207929 16.918963 -89.556081 8.584434 12.228515 -55.762279 6.539243 10.254603 -46.526279 0.000003 -0.000000 0.000012 0.501059 14.847575 -5.285685 -43.525237 14.441774 56.185027 9.105995 114.623743 -7.965055 -25.678899 39.617337 -16.775291 5.359671 2.729921 2.198583 -0.325149 -19.236627 -16.537152 -8.734049 -3.321994 -4.296771 -0.000005 -0.000004 0.000012 16.827788 -3.093754 76.083513 13.632787 -5.435083 53.763585 11.887808 -4.745318 47.981457 -0.000003 -0.000002 0.000001 13.109769 -4.236146 80.093961 10.292394 -7.464267 51.026960 9.660590 -5.941594 51.286825 0.000000 0.000000 0.000003 12.870918 -4.360864 78.884894 7.726330 -9.653246 55.360965 6.223055 -8.325422 52.858151 -0.000006 -0.000003 -0.000001 16.877850 -13.936290 82.096476 6.712124 -10.397909 53.585809 5.520346 -8.894616 50.629559 -0.000004 -0.000003 -0.000001 -80.968518 6.965641 -16.122317 56.307588 13.742481 -1.956903 11.184929 2.031814 3.732351 6.709489 -0.000017 0.000007 -0.000000 0.000002 0.000002 16.565676 -13.638908 -0.817001 7.660365 -7.447918 -0.499522 37.411412 -1.807219 -4.731621 -5.212823 -0.000011 -0.000007 0.000000 0.000002 -0.000001 
